<svg width="148" height="42" viewBox="0 0 148 42" fill="none" xmlns="http://www.w3.org/2000/svg">
<g filter="url(#filter0_d_1_3)">
<path d="M4.77769 14.508C4.77769 12.372 5.08969 10.488 5.71369 8.856C6.36169 7.224 7.22569 5.868 8.30569 4.788C9.40969 3.684 10.6817 2.856 12.1217 2.304C13.5857 1.752 15.1337 1.476 16.7657 1.476C18.3737 1.476 19.8857 1.752 21.3017 2.304C22.7417 2.856 24.0017 3.684 25.0817 4.788C26.1617 5.868 27.0137 7.224 27.6377 8.856C28.2857 10.488 28.6097 12.372 28.6097 14.508C28.6097 16.38 28.3697 18.048 27.8897 19.512C27.4097 20.976 26.7377 22.248 25.8737 23.328C25.0337 24.384 24.0377 25.248 22.8857 25.92C21.7577 26.568 20.5457 27.012 19.2497 27.252C19.2737 27.804 19.5137 28.284 19.9697 28.692C20.4497 29.124 21.0497 29.484 21.7697 29.772C22.4897 30.06 23.2937 30.3 24.1817 30.492C25.0697 30.684 25.9577 30.828 26.8457 30.924L26.0177 33.66C24.7697 33.492 23.5697 33.264 22.4177 32.976C21.2897 32.712 20.2577 32.352 19.3217 31.896C18.4097 31.44 17.6417 30.852 17.0177 30.132C16.3937 29.436 15.9737 28.56 15.7577 27.504C14.2457 27.408 12.8177 27.06 11.4737 26.46C10.1297 25.836 8.96569 24.984 7.98169 23.904C6.99769 22.8 6.21769 21.468 5.64169 19.908C5.06569 18.348 4.77769 16.548 4.77769 14.508ZM8.44969 14.508C8.44969 16.02 8.64169 17.4 9.02569 18.648C9.40969 19.872 9.94969 20.916 10.6457 21.78C11.3657 22.644 12.2297 23.316 13.2377 23.796C14.2697 24.252 15.4217 24.48 16.6937 24.48C17.9657 24.48 19.1057 24.252 20.1137 23.796C21.1217 23.316 21.9737 22.644 22.6697 21.78C23.3897 20.916 23.9417 19.872 24.3257 18.648C24.7097 17.4 24.9017 16.02 24.9017 14.508C24.9017 12.996 24.7097 11.628 24.3257 10.404C23.9417 9.156 23.3897 8.1 22.6697 7.236C21.9737 6.372 21.1217 5.712 20.1137 5.256C19.1057 4.776 17.9657 4.536 16.6937 4.536C15.4217 4.536 14.2697 4.776 13.2377 5.256C12.2297 5.712 11.3657 6.372 10.6457 7.236C9.94969 8.1 9.40969 9.156 9.02569 10.404C8.64169 11.628 8.44969 12.996 8.44969 14.508ZM48.1332 26.46C47.3652 26.652 46.3452 26.856 45.0732 27.072C43.8252 27.288 42.3732 27.396 40.7172 27.396C39.2772 27.396 38.0652 27.192 37.0812 26.784C36.0972 26.352 35.3052 25.752 34.7052 24.984C34.1052 24.216 33.6732 23.316 33.4092 22.284C33.1452 21.228 33.0132 20.064 33.0132 18.792V8.28H36.3612V18.072C36.3612 20.352 36.7212 21.984 37.4412 22.968C38.1612 23.952 39.3732 24.444 41.0772 24.444C41.4372 24.444 41.8092 24.432 42.1932 24.408C42.5772 24.384 42.9372 24.36 43.2732 24.336C43.6092 24.288 43.9092 24.252 44.1732 24.228C44.4612 24.18 44.6652 24.132 44.7852 24.084V8.28H48.1332V26.46ZM59.8771 24.588C60.6691 24.588 61.3651 24.576 61.9651 24.552C62.5891 24.504 63.1051 24.432 63.5131 24.336V18.756C63.2731 18.636 62.8771 18.54 62.3251 18.468C61.7971 18.372 61.1491 18.324 60.3811 18.324C59.8771 18.324 59.3371 18.36 58.7611 18.432C58.2091 18.504 57.6931 18.66 57.2131 18.9C56.7571 19.116 56.3731 19.428 56.0611 19.836C55.7491 20.22 55.5931 20.736 55.5931 21.384C55.5931 22.584 55.9771 23.424 56.7451 23.904C57.5131 24.36 58.5571 24.588 59.8771 24.588ZM59.5891 7.812C60.9331 7.812 62.0611 7.992 62.9731 8.352C63.9091 8.688 64.6531 9.18 65.2051 9.828C65.7811 10.452 66.1891 11.208 66.4291 12.096C66.6691 12.96 66.7891 13.92 66.7891 14.976V26.676C66.5011 26.724 66.0931 26.796 65.5651 26.892C65.0611 26.964 64.4851 27.036 63.8371 27.108C63.1891 27.18 62.4811 27.24 61.7131 27.288C60.9691 27.36 60.2251 27.396 59.4811 27.396C58.4251 27.396 57.4531 27.288 56.5651 27.072C55.6771 26.856 54.9091 26.52 54.2611 26.064C53.6131 25.584 53.1091 24.96 52.7491 24.192C52.3891 23.424 52.2091 22.5 52.2091 21.42C52.2091 20.388 52.4131 19.5 52.8211 18.756C53.2531 18.012 53.8291 17.412 54.5491 16.956C55.2691 16.5 56.1091 16.164 57.0691 15.948C58.0291 15.732 59.0371 15.624 60.0931 15.624C60.4291 15.624 60.7771 15.648 61.1371 15.696C61.4971 15.72 61.8331 15.768 62.1451 15.84C62.4811 15.888 62.7691 15.936 63.0091 15.984C63.2491 16.032 63.4171 16.068 63.5131 16.092V15.156C63.5131 14.604 63.4531 14.064 63.3331 13.536C63.2131 12.984 62.9971 12.504 62.6851 12.096C62.3731 11.664 61.9411 11.328 61.3891 11.088C60.8611 10.824 60.1651 10.692 59.3011 10.692C58.1971 10.692 57.2251 10.776 56.3851 10.944C55.5691 11.088 54.9571 11.244 54.5491 11.412L54.1531 8.64C54.5851 8.448 55.3051 8.268 56.3131 8.1C57.3211 7.908 58.4131 7.812 59.5891 7.812ZM71.9897 8.82C72.7577 8.628 73.7777 8.424 75.0497 8.208C76.3217 7.992 77.7857 7.884 79.4417 7.884C80.9297 7.884 82.1657 8.1 83.1497 8.532C84.1337 8.94 84.9137 9.528 85.4897 10.296C86.0897 11.04 86.5097 11.94 86.7497 12.996C86.9897 14.052 87.1097 15.216 87.1097 16.488V27H83.7617V17.208C83.7617 16.056 83.6777 15.072 83.5097 14.256C83.3657 13.44 83.1137 12.78 82.7537 12.276C82.3937 11.772 81.9137 11.412 81.3137 11.196C80.7137 10.956 79.9697 10.836 79.0817 10.836C78.7217 10.836 78.3497 10.848 77.9657 10.872C77.5817 10.896 77.2097 10.932 76.8497 10.98C76.5137 11.004 76.2017 11.04 75.9137 11.088C75.6497 11.136 75.4577 11.172 75.3377 11.196V27H71.9897V8.82ZM95.4336 8.28H102.526V11.088H95.4336V19.728C95.4336 20.664 95.5056 21.444 95.6496 22.068C95.7936 22.668 96.0096 23.148 96.2976 23.508C96.5856 23.844 96.9456 24.084 97.3776 24.228C97.8096 24.372 98.3136 24.444 98.8896 24.444C99.8976 24.444 100.702 24.336 101.302 24.12C101.926 23.88 102.358 23.712 102.598 23.616L103.246 26.388C102.91 26.556 102.322 26.76 101.482 27C100.642 27.264 99.6816 27.396 98.6016 27.396C97.3296 27.396 96.2736 27.24 95.4336 26.928C94.6176 26.592 93.9576 26.1 93.4536 25.452C92.9496 24.804 92.5896 24.012 92.3736 23.076C92.1816 22.116 92.0856 21.012 92.0856 19.764V3.06L95.4336 2.484V8.28ZM109.774 27H106.426V8.28H109.774V27ZM108.082 4.896C107.482 4.896 106.966 4.704 106.534 4.32C106.126 3.912 105.922 3.372 105.922 2.7C105.922 2.028 106.126 1.5 106.534 1.116C106.966 0.707998 107.482 0.503998 108.082 0.503998C108.682 0.503998 109.186 0.707998 109.594 1.116C110.026 1.5 110.242 2.028 110.242 2.7C110.242 3.372 110.026 3.912 109.594 4.32C109.186 4.704 108.682 4.896 108.082 4.896ZM118.303 8.28H125.395V11.088H118.303V19.728C118.303 20.664 118.375 21.444 118.519 22.068C118.663 22.668 118.879 23.148 119.167 23.508C119.455 23.844 119.815 24.084 120.247 24.228C120.679 24.372 121.183 24.444 121.759 24.444C122.767 24.444 123.571 24.336 124.171 24.12C124.795 23.88 125.227 23.712 125.467 23.616L126.115 26.388C125.779 26.556 125.191 26.76 124.351 27C123.511 27.264 122.551 27.396 121.471 27.396C120.199 27.396 119.143 27.24 118.303 26.928C117.487 26.592 116.827 26.1 116.323 25.452C115.819 24.804 115.459 24.012 115.243 23.076C115.051 22.116 114.955 21.012 114.955 19.764V3.06L118.303 2.484V8.28ZM127.1 30.492C127.364 30.612 127.7 30.72 128.108 30.816C128.54 30.936 128.96 30.996 129.368 30.996C130.688 30.996 131.72 30.696 132.464 30.096C133.208 29.52 133.88 28.572 134.48 27.252C132.968 24.372 131.552 21.324 130.232 18.108C128.936 14.868 127.856 11.592 126.992 8.28H130.592C130.856 9.36 131.168 10.524 131.528 11.772C131.912 13.02 132.332 14.304 132.788 15.624C133.244 16.944 133.736 18.264 134.264 19.584C134.792 20.904 135.344 22.176 135.92 23.4C136.832 20.88 137.624 18.384 138.296 15.912C138.968 13.44 139.604 10.896 140.204 8.28H143.66C142.796 11.808 141.836 15.204 140.78 18.468C139.724 21.708 138.584 24.744 137.36 27.576C136.88 28.656 136.376 29.58 135.848 30.348C135.344 31.14 134.78 31.788 134.156 32.292C133.532 32.796 132.824 33.168 132.032 33.408C131.264 33.648 130.388 33.768 129.404 33.768C129.14 33.768 128.864 33.744 128.576 33.696C128.288 33.672 128 33.624 127.712 33.552C127.448 33.504 127.196 33.444 126.956 33.372C126.74 33.3 126.584 33.24 126.488 33.192L127.1 30.492Z" fill="#1E1E1E"/>
</g>
<defs>
<filter id="filter0_d_1_3" x="0.777687" y="0.503998" width="146.882" height="41.264" filterUnits="userSpaceOnUse" color-interpolation-filters="sRGB">
<feFlood flood-opacity="0" result="BackgroundImageFix"/>
<feColorMatrix in="SourceAlpha" type="matrix" values="0 0 0 0 0 0 0 0 0 0 0 0 0 0 0 0 0 0 127 0" result="hardAlpha"/>
<feOffset dy="4"/>
<feGaussianBlur stdDeviation="2"/>
<feComposite in2="hardAlpha" operator="out"/>
<feColorMatrix type="matrix" values="0 0 0 0 0 0 0 0 0 0 0 0 0 0 0 0 0 0 0.25 0"/>
<feBlend mode="normal" in2="BackgroundImageFix" result="effect1_dropShadow_1_3"/>
<feBlend mode="normal" in="SourceGraphic" in2="effect1_dropShadow_1_3" result="shape"/>
</filter>
</defs>
</svg>
